<svg xmlns="http://www.w3.org/2000/svg" xmlns:xlink="http://www.w3.org/1999/xlink" version="1.1" x="0px" y="0px" viewBox="0 0 90 112.5" style="enable-background:new 0 0 90 90;" xml:space="preserve"><g><path d="M41.7,66c-0.1-0.8-0.8-1.4-1.6-1.3c-0.8,0.1-1.4,0.8-1.3,1.6l0.7,7.9c0.1,0.9-0.1,1.7-0.4,2.5c-0.7,1.6-2.1,4.2-4.4,4.4   c-4.5,0.3-11,0.3-11.1,0.3c-7.6,0.2-7.6-0.5-7.7-2.6c-0.1-3.4,3.9-19,5-22.7c0.9-3.1,4.2-8.4,9.3-9.4c1.2-0.2,2.3-0.1,3.5,0.5   c2.4,1.1,4,3.6,4.2,6.5c0.1,0.8,0.8,1.4,1.6,1.4c0.8-0.1,1.4-0.8,1.4-1.6c-0.3-3.9-2.5-7.3-5.9-8.9c-1.7-0.8-3.5-1.1-5.3-0.7   c-6.4,1.3-10.4,7.5-11.6,11.5c-0.1,0.2-5.3,19.1-5.1,23.6c0.2,4.8,3.4,5.4,8.1,5.4c0.8,0,1.7,0,2.6,0c0.3,0,6.7,0,11.3-0.3   c2.9-0.2,5.4-2.4,6.9-6.2c0.5-1.2,0.7-2.6,0.6-3.9L41.7,66z"/><path d="M72,55.3c-1.1-3.9-5.1-10.2-11.6-11.5c-1.8-0.4-3.6-0.1-5.3,0.7c-3.3,1.6-5.6,5-5.9,8.9c-0.1,0.8,0.5,1.5,1.4,1.6   c0.8,0.1,1.5-0.5,1.6-1.4c0.2-2.8,1.8-5.3,4.2-6.5c1.2-0.6,2.3-0.7,3.5-0.5c5.1,1,8.4,6.3,9.3,9.4c1.1,3.7,5.1,19.3,5,22.7   c-0.1,2.1-0.1,2.7-7.7,2.6c-0.1,0-6.6,0-11.1-0.3c-2.3-0.2-3.7-2.8-4.4-4.4c-0.3-0.8-0.5-1.7-0.4-2.5l0.7-7.9   c0.1-0.8-0.5-1.5-1.3-1.6c-0.8-0.1-1.5,0.5-1.6,1.3l-0.7,7.9c-0.1,1.3,0.1,2.7,0.6,3.9c1.6,3.8,4,6,6.9,6.2   c4.6,0.3,11,0.3,11.3,0.3c0.9,0,1.8,0,2.6,0c4.7,0,7.9-0.6,8.1-5.4C77.3,74.4,72.1,55.5,72,55.3z"/><path d="M54.7,63.6C54.7,63.6,54.7,63.6,54.7,63.6c0.3,0.1,0.6,0.1,0.9,0.1c0.1,0,0.1,0,0.2,0c0.5,0.1,1,0.3,1.4,0.5   c0.1,0.1,0.2,0.2,0.3,0.2c0.4,0.2,0.7,0.5,1,0.9c0.7,0.8,1,1.8,1,2.8c0,0.2,0,0.4,0,0.7c0,0,0,0.1,0,0.1c-0.2,1.4-1.1,2.6-2.4,3.3   c-0.7,0.4-1,1.2-0.7,2c0.3,0.5,0.8,0.8,1.3,0.8c0.2,0,0.4,0,0.6-0.1c2.2-1.1,3.7-3.1,4.1-5.5c0.1-0.4,0.1-0.7,0.1-1.1   c0-1.8-0.6-3.4-1.6-4.7c1.3,0,2.5,0.5,3.4,1.4c1,1.1,1.4,2.5,1.1,4c-0.2,0.8,0.3,1.6,1.1,1.8c0.1,0,0.2,0,0.3,0   c0.7,0,1.3-0.5,1.4-1.2c0.5-2.4-0.2-4.8-1.8-6.6c-1.2-1.3-2.8-2.1-4.5-2.3c0.6-0.9,1.1-1.9,1.3-3.1c0.5-2.9-0.8-5.8-3.2-7.4   c-0.7-0.4-1.6-0.3-2,0.4c-0.4,0.7-0.3,1.6,0.4,2c1.5,1,2.2,2.7,1.9,4.5c-0.4,2.4-2.7,4-5.1,3.6c0,0,0,0,0,0c0,0,0,0,0,0   c-5.4-0.5-8.1-5.7-8.6-6.8V44l0,0v-1v0v0H48c6.6,0,12-5.4,12-12c0-0.8-0.7-1.5-1.5-1.5h-3c-3.5,0-6.8,1.6-9,4.1v-3.5   c0-0.1,0-0.1,0-0.2c1.7-0.5,3.1-1.8,3.7-3.5c0.6,0.2,1.3,0.4,1.9,0.4c2.9,0,5.3-2.4,5.3-5.3c0-1.6-0.8-3.1-1.9-4.1   c1.7-0.9,2.8-2.6,2.8-4.6c0-2.9-2.4-5.3-5.3-5.3c-0.9,0-1.8,0.3-2.5,0.7C50.3,5.3,48,3,45.1,3c0,0,0,0,0,0c0,0,0,0,0,0   c-2.9,0-5.2,2.3-5.3,5.2c-0.8-0.4-1.6-0.7-2.5-0.7c-2.9,0-5.3,2.4-5.3,5.3c0,2,1.1,3.7,2.8,4.6c-1.2,1-1.9,2.4-1.9,4.1   c0,2.9,2.4,5.3,5.3,5.3c0.7,0,1.4-0.1,2-0.4c0.5,1.6,1.8,2.9,3.5,3.4c0,0.1,0,0.2,0,0.3v3.5c-2.3-2.6-5.5-4.1-9-4.1h-3   c-0.8,0-1.5,0.7-1.5,1.5c0,6.6,5.4,12,12,12h1.5v0v0l0,0v10.8c-0.5,1.2-3.2,6.4-8.6,6.8c0,0,0,0,0,0c0,0,0,0,0,0   c-2.4,0.4-4.7-1.2-5.1-3.6c-0.3-1.7,0.5-3.5,1.9-4.5c0.7-0.4,0.9-1.4,0.4-2c-0.4-0.7-1.4-0.9-2-0.4c-2.5,1.6-3.7,4.5-3.2,7.4   c0.2,1.2,0.7,2.2,1.3,3.1c-1.7,0.2-3.3,1-4.5,2.3c-1.6,1.8-2.3,4.2-1.8,6.6c0.2,0.7,0.8,1.2,1.4,1.2c0.1,0,0.2,0,0.3,0   c0.8-0.2,1.3-1,1.1-1.8c-0.3-1.4,0.1-2.9,1.1-4c0.9-1,2.1-1.5,3.4-1.4c-1,1.3-1.6,3-1.6,4.7c0,0.4,0,0.7,0.1,1.1   c0.4,2.4,1.9,4.4,4.1,5.5c0.2,0.1,0.4,0.1,0.6,0.1c0.5,0,1.1-0.3,1.3-0.8c0.4-0.7,0.1-1.6-0.7-2c-1.3-0.6-2.2-1.9-2.4-3.3   c0,0,0-0.1,0-0.1c0-0.2,0-0.5,0-0.7c0-1,0.4-2,1-2.8c0.3-0.3,0.6-0.6,1-0.9c0.1-0.1,0.2-0.1,0.3-0.2c0.4-0.2,0.9-0.4,1.4-0.5   c0.1,0,0.1,0,0.2,0c0.3,0,0.6,0,0.9-0.1c0,0,0,0,0,0c5-0.5,8.1-3.9,9.7-6.4C46.6,59.7,49.7,63.1,54.7,63.6z M55.5,32.5h1.4   C56.1,36.8,52.4,40,48,40h-1.4C47.4,35.6,51.1,32.5,55.5,32.5z M42,40c-4.4,0-8.1-3.2-8.9-7.5h1.4c4.4,0,8.1,3.2,8.9,7.5H42z    M42.2,16.6c0-1.6,1.3-2.9,2.9-2.9c1.6,0,2.9,1.3,2.9,2.9s-1.3,2.9-2.9,2.9C43.5,19.5,42.2,18.2,42.2,16.6z M47.4,8.3   c0,1.3-1.1,2.4-2.4,2.4c-1.3,0-2.4-1.1-2.4-2.4s1.1-2.4,2.4-2.4C46.4,5.9,47.4,7,47.4,8.3z M52.1,23.9c-1.3,0-2.4-1.1-2.4-2.4   c0-1.3,1.1-2.4,2.4-2.4s2.4,1.1,2.4,2.4C54.5,22.8,53.4,23.9,52.1,23.9z M52.9,10.4c1.3,0,2.4,1.1,2.4,2.4s-1.1,2.4-2.4,2.4   s-2.4-1.1-2.4-2.4S51.6,10.4,52.9,10.4z M37.2,10.4c1.3,0,2.4,1.1,2.4,2.4s-1.1,2.4-2.4,2.4s-2.4-1.1-2.4-2.4S35.9,10.4,37.2,10.4z    M38.1,23.9c-1.3,0-2.4-1.1-2.4-2.4c0-1.3,1.1-2.4,2.4-2.4s2.4,1.1,2.4,2.4C40.5,22.8,39.4,23.9,38.1,23.9z M42.7,24.8   c0-1.3,1.1-2.4,2.4-2.4c1.3,0,2.4,1.1,2.4,2.4s-1.1,2.4-2.4,2.4C43.8,27.2,42.7,26.1,42.7,24.8z"/></g></svg>