<svg xmlns="http://www.w3.org/2000/svg" xmlns:xlink="http://www.w3.org/1999/xlink" version="1.1" x="0px" y="0px" viewBox="0 0 64 80" style="enable-background:new 0 0 64 64;" xml:space="preserve"><g><circle cx="29" cy="22" r="1"/><circle cx="35" cy="22" r="1"/><path d="M29.895,24.553l-1.789,0.895l0.105,0.21C28.933,27.103,30.385,28,32,28s3.067-0.897,3.789-2.342l0.105-0.211l-1.789-0.895   L34,24.764C33.619,25.526,32.853,26,32,26s-1.619-0.474-2-1.236L29.895,24.553z"/><path d="M49.467,41.598c-0.231-1.328-0.745-2.562-1.467-3.672V17c0-8.822-7.178-16-16-16S16,8.178,16,17v20.927   c-0.722,1.11-1.236,2.344-1.467,3.672L10.812,63h42.377L49.467,41.598z M50.812,61h-5.666l-1.768-10.168   C43.772,49.699,44,48.51,44,47.301c0-1.66-0.393-3.321-1.135-4.806l-0.558-1.116l3.579-2.982c0.82,1.029,1.382,2.232,1.61,3.544   L50.812,61z M22.132,53.83l0.403,0.673C22.839,55.009,23,55.589,23,56.18c0,0.416-0.078,0.824-0.233,1.21L21.323,61h-0.438   L22.132,53.83z M24.25,53.474L23.246,51.8C22.431,50.441,22,48.885,22,47.301c0-1.351,0.319-2.703,0.924-3.911l0.347-0.695   l5.78,4.817c0.186,1.074,0.943,1.946,1.948,2.304V61h-7.523l1.147-2.867C24.873,57.508,25,56.851,25,56.18   C25,55.227,24.74,54.291,24.25,53.474z M24,28c0,0.551-0.448,1-1,1s-1-0.449-1-1s0.448-1,1-1S24,27.449,24,28z M29.259,7.391   L29.78,10c-0.321,0.356-0.556,0.786-0.678,1.264c-0.361,0.101-0.712,0.226-1.045,0.379l-2.381-2.382   C26.716,8.41,27.933,7.77,29.259,7.391z M38.324,9.262l-2.381,2.382c-0.333-0.153-0.683-0.279-1.045-0.379   c-0.122-0.478-0.357-0.908-0.678-1.264l0.522-2.609C36.067,7.77,37.284,8.41,38.324,9.262z M34.873,17   c-0.224-0.976-0.719-1.855-1.189-2.519c0.435-0.296,0.781-0.709,1.011-1.187c1.646,0.587,2.852,1.996,3.198,3.706H34.873z    M29.127,17h-3.02c0.345-1.71,1.552-3.119,3.198-3.706c0.231,0.478,0.576,0.891,1.011,1.187C29.847,15.145,29.351,16.024,29.127,17   z M24,19c-0.732,0-1.409,0.212-2,0.556V17c0-0.502,0.049-0.992,0.121-1.474l2.078,0.831C24.073,16.885,24,17.434,24,18V19z M33,12   c0,0.429-0.275,0.789-0.656,0.93L32,12.586l-0.344,0.344C31.275,12.789,31,12.429,31,12c0-0.551,0.448-1,1-1S33,11.449,33,12z    M32,15.561c0.49,0.683,1,1.609,1,2.439c0,0.551-0.448,1-1,1s-1-0.449-1-1C31,17.17,31.51,16.244,32,15.561z M42,17v2.556   C41.409,19.212,40.732,19,40,19v-1c0-0.566-0.073-1.115-0.199-1.643l2.078-0.831C41.951,16.008,42,16.498,42,17z M42,28   c0,0.551-0.448,1-1,1s-1-0.449-1-1s0.448-1,1-1S42,27.449,42,28z M40,25h-0.069C39.972,24.672,40,24.339,40,24v-3   c1.103,0,2,0.897,2,2S41.103,25,40,25z M39.066,14.496c-0.375-0.651-0.855-1.234-1.416-1.732l2.088-2.089   c0.702,0.857,1.255,1.836,1.643,2.895L39.066,14.496z M32.373,9.038C32.249,9.022,32.128,9,32,9s-0.249,0.022-0.373,0.038   l-0.4-1.999C31.483,7.019,31.739,7,32,7s0.517,0.019,0.772,0.039L32.373,9.038z M24.262,10.676l2.088,2.089   c-0.561,0.498-1.041,1.081-1.416,1.732l-2.315-0.926C23.007,12.512,23.56,11.533,24.262,10.676z M24,21v3   c0,0.339,0.028,0.672,0.069,1H24c-1.103,0-2-0.897-2-2S22.897,21,24,21z M26,19h3.184c0.414,1.161,1.514,2,2.816,2   s2.402-0.839,2.816-2H38v5c0,3.309-2.691,6-6,6s-6-2.691-6-6V19z M32,32c0.339,0,0.672-0.028,1-0.069v4.032   C32.8,35.984,32.599,36,32.395,36h-0.789C31.401,36,31.2,35.984,31,35.963v-4.032C31.328,31.972,31.661,32,32,32z M35,31.411   c0.118-0.048,0.232-0.101,0.347-0.154c0.367,1.228,0.942,2.179,1.38,2.767c-0.487,0.562-1.076,1.014-1.726,1.346V31.411z    M29,31.411v3.958c-0.651-0.332-1.239-0.784-1.726-1.346c0.438-0.588,1.013-1.539,1.38-2.767C28.768,31.31,28.882,31.363,29,31.411   z M25.571,35.085C27.032,36.916,29.237,38,31.605,38h0.789c2.369,0,4.573-1.084,6.034-2.915l1.224,0.204l-7.167,8.76   C32.327,44.023,32.166,44,32,44s-0.327,0.023-0.486,0.049l-7.167-8.76L25.571,35.085z M34.472,45.305   c-0.064-0.093-0.141-0.175-0.215-0.26l7.622-9.316c0.931,0.263,1.801,0.68,2.573,1.26L34.472,45.305z M32,48c-0.552,0-1-0.449-1-1   s0.448-1,1-1s1,0.449,1,1S32.552,48,32,48z M22.121,35.728l7.622,9.316c-0.074,0.085-0.151,0.167-0.215,0.26l-9.98-8.317   C20.32,36.409,21.19,35.991,22.121,35.728z M33,49.816c1.005-0.358,1.762-1.23,1.948-2.304l5.78-4.817l0.347,0.695   C41.681,44.598,42,45.95,42,47.301c0,1.584-0.431,3.14-1.246,4.5l-1.004,1.673C39.26,54.291,39,55.227,39,56.18   c0,0.671,0.127,1.329,0.376,1.954L40.523,61H33V49.816z M41.233,57.391C41.078,57.003,41,56.596,41,56.18   c0-0.59,0.161-1.17,0.465-1.677l0.403-0.673L43.115,61h-0.438L41.233,57.391z M46,17v18.66c-1.334-1.099-2.919-1.827-4.643-2.114   l-2.843-0.474c-0.357-0.438-1.109-1.501-1.397-2.93c0.394-0.329,0.757-0.696,1.081-1.094C38.626,30.185,39.716,31,41,31   c1.654,0,3-1.346,3-3c0-0.92-0.425-1.735-1.08-2.286C43.585,25,44,24.05,44,23v-6c0-5.165-3.287-9.566-7.874-11.254l1.797-1.413   C42.686,6.57,46,11.399,46,17z M35.724,3.518l-2.049,1.612C33.126,5.054,32.57,5,32,5s-1.126,0.054-1.675,0.131l-2.049-1.612   C29.464,3.19,30.709,3,32,3S34.536,3.19,35.724,3.518z M26.077,4.333l1.797,1.413C23.287,7.434,20,11.835,20,17v6   c0,1.05,0.415,2,1.08,2.714C20.425,26.265,20,27.08,20,28c0,1.654,1.346,3,3,3c1.284,0,2.374-0.815,2.801-1.952   c0.325,0.398,0.687,0.765,1.081,1.094c-0.287,1.431-1.04,2.493-1.397,2.93l-2.843,0.474c-1.723,0.287-3.309,1.016-4.643,2.114V17   C18,11.399,21.314,6.57,26.077,4.333z M16.504,41.941c0.228-1.312,0.789-2.515,1.61-3.544l3.579,2.982l-0.558,1.116   C20.393,43.979,20,45.641,20,47.301c0,1.209,0.228,2.398,0.623,3.531L18.855,61h-5.666L16.504,41.941z"/></g></svg>