<svg xmlns="http://www.w3.org/2000/svg" viewBox="0 0 64 80" x="0px" y="0px"><g><g data-name="Outline"><path d="M60.639,16.592,41,5.253V5a3,3,0,0,0-3-3H5A3,3,0,0,0,2,5V59a3,3,0,0,0,3,3H38a3,3,0,0,0,3-3V56.057L61.637,20.313A2.742,2.742,0,0,0,60.639,16.592ZM59.9,19.313,41,52.057V22a1,1,0,0,0-2,0V59a1,1,0,0,1-1,1H5a1,1,0,0,1-1-1V5A1,1,0,0,1,5,4H38a1,1,0,0,1,1,1v9a1,1,0,0,0,2,0V7.562L59.64,18.324A.732.732,0,0,1,59.9,19.313Z"/><path d="M34,6H26.5a1.007,1.007,0,0,0-.949,1.316l.759,2.276L21.5,12.8,16.69,9.592l.759-2.276A1.007,1.007,0,0,0,16.5,6H9A3,3,0,0,0,6,9V55a3,3,0,0,0,3,3h7.5a1.007,1.007,0,0,0,.949-1.316l-.759-2.276L21.5,51.2l4.81,3.206-.759,2.276A1.007,1.007,0,0,0,26.5,58H34a3,3,0,0,0,3-3V9A3,3,0,0,0,34,6Zm1,49a1,1,0,0,1-1,1H27.887l.562-1.684a1,1,0,0,0-.394-1.148l-6-4a1,1,0,0,0-1.11,0l-6,4a1,1,0,0,0-.394,1.148L15.113,56H9a1,1,0,0,1-1-1V38.495a14.967,14.967,0,0,0,27,0ZM8.5,32a13,13,0,1,1,13,13A13.015,13.015,0,0,1,8.5,32Zm26.5-6.5a14.967,14.967,0,0,0-27,0V9A1,1,0,0,1,9,8h6.113l-.562,1.684a1,1,0,0,0,.394,1.148l6,4a1,1,0,0,0,1.11,0l6-4a1,1,0,0,0,.394-1.148L27.887,8H34a1,1,0,0,1,1,1Z"/><circle cx="21.5" cy="32" r="1"/><circle cx="21.5" cy="9" r="1"/><circle cx="21.5" cy="55" r="1"/><path d="M56,42a1,1,0,0,0,2,0V41h1a1,1,0,0,0,0-2H58V38a1,1,0,0,0-2,0v1H55a1,1,0,0,0,0,2h1Z"/><path d="M49,58H48V57a1,1,0,0,0-2,0v1H45a1,1,0,0,0,0,2h1v1a1,1,0,0,0,2,0V60h1a1,1,0,0,0,0-2Z"/><path d="M59,50a3,3,0,1,0,3,3A3,3,0,0,0,59,50Zm0,4a1,1,0,1,1,1-1A1,1,0,0,1,59,54Z"/><path d="M59,2a3,3,0,1,0,3,3A3,3,0,0,0,59,2Zm0,4a1,1,0,1,1,1-1A1,1,0,0,1,59,6Z"/><circle cx="40" cy="18" r="1"/><path d="M21.5,43a11,11,0,1,0-11-11A11.013,11.013,0,0,0,21.5,43Zm-6.689-5h3.225l1.621,2.809A8.993,8.993,0,0,1,14.811,38Zm2.07-6,2.31-4h4.618l2.31,4-2.31,4H19.191ZM21.5,40l-1.155-2h2.31Zm1.843.809L24.964,38h3.225A8.993,8.993,0,0,1,23.343,40.809ZM26.119,36l1.155-2,1.154,2Zm3.928-6.8a8.9,8.9,0,0,1,0,5.608L28.428,32Zm-2.773.8-1.155-2h2.309Zm.915-4H24.964l-1.621-2.809A8.993,8.993,0,0,1,28.189,26ZM21.5,24l1.155,2h-2.31Zm-1.843-.809L18.036,26H14.811A8.993,8.993,0,0,1,19.657,23.191ZM16.881,28l-1.155,2-1.154-2Zm-1.155,6,1.155,2H14.572ZM12.5,32a8.976,8.976,0,0,1,.453-2.8L14.572,32l-1.619,2.8A8.976,8.976,0,0,1,12.5,32Z"/></g></g></svg>